#!OML:ASF X:\für Bonn\!DataBase\2005_08_10_Bjorn_Final\c3d\bjorn.ASF
:FULLY-SPECIFIED
:DEGREES
126
root 0.516755 18.6711 1.7872 -184.246 2.21973 181.94
lowerback -21.4843 -0.880325 -1.056
upperback 10.268 -1.18567 3.9777
thorax 24.6802 -0.949748 4.94734
lowerneck 18.4072 0.437311 -0.309201
upperneck 9.45253 2.25996 2.49825
head -0.0523294 1.80653 0.717563
rclavicle 6.95746e-015 2.8625e-014
rhumerus -1485.13 -42.2774 1421.44
rradius 16.487
rwrist 23.7188
rhand -3.59428 -6.09704
rfingers 7.12502
rthumb 22.1435 -34.8489
lclavicle 6.95746e-015 2.8625e-014
lhumerus -1663.68 127.206 -1597.61
lradius 14.8782
lwrist -63.4475
lhand -27.0868 6.37773
lfingers 7.12502
lthumb -0.503951 36.3569
rfemur -1.50985 -8.15504 14.6541
rtibia 33.6496
rfoot -23.4795 10.2465
rtoes -18.6286
lfemur 0.674599 11.5406 -10.786
ltibia 34.5633
lfoot -19.5165 -10.8969
ltoes -2.45351
127
root 0.504889 18.6818 1.86037 -184.272 2.2824 182.001
lowerback -20.8 -0.929282 -0.951298
upperback 10.5552 -1.2408 4.08902
thorax 24.6496 -0.947423 5.01792
lowerneck 17.1291 0.891139 -0.498881
upperneck 8.30977 2.52753 2.11123
head -0.225249 1.81333 0.613701
rclavicle 4.77083e-015 5.56597e-014
rhumerus -1485.14 -45.515 1419.73
rradius 15.6071
rwrist 25.9416
rhand -4.55473 -5.72264
rfingers 7.12502
rthumb 21.2212 -34.581
lclavicle 4.77083e-015 5.56597e-014
lhumerus -1671.08 119.476 -1604.29
lradius 13.1332
lwrist -71.5344
lhand -25.6615 5.18053
lfingers 7.12502
lthumb 0.872656 35.1585
rfemur -1.79239 -8.21292 14.6972
rtibia 33.7125
rfoot -23.2112 10.3181
rtoes -18.5464
lfemur 0.508307 11.5245 -10.8262
ltibia 34.4588
lfoot -19.52 -10.6934
ltoes -2.90727
128
root 0.492973 18.696 1.93635 -184.268 2.33034 181.972
lowerback -20.1011 -0.971378 -0.912605
upperback 10.8398 -1.25237 4.14198
thorax 24.5946 -0.931103 5.07406
lowerneck 15.8815 1.31447 -0.616375
upperneck 7.0618 2.79057 1.6814
head -0.429609 1.82885 0.486929
rclavicle 2.78299e-015 1.51076e-014
rhumerus -1485.48 -49.17 1418.57
rradius 14.7884
rwrist 30.0258
rhand -5.1304 -5.38452
rfingers 7.12502
rthumb 20.6681 -34.304
lclavicle 2.78299e-015 1.51076e-014
lhumerus -1689.39 111.531 -1622.19
lradius 11.7646
lwrist -81.9012
lhand -24.9758 4.2943
lfingers 7.12502
lthumb 1.53496 34.2685
rfemur -2.11708 -8.29096 14.6442
rtibia 33.7667
rfoot -22.9339 10.3601
rtoes -18.6726
lfemur 0.300518 11.4541 -11.0024
ltibia 34.3347
lfoot -19.5583 -10.392
ltoes -3.48182
129
root 0.479873 18.7102 2.01396 -184.226 2.42587 181.963
lowerback -19.4039 -0.963862 -0.805542
upperback 11.1199 -1.20537 4.15221
thorax 24.5172 -0.873101 5.06169
lowerneck 14.5568 1.67384 -0.581028
upperneck 5.86242 3.02688 1.21274
head -0.596342 1.85008 0.328188
rclavicle 1.78906e-015 -7.95139e-016
rhumerus -1485.46 -52.5211 1417.02
rradius 14.1259
rwrist 33.1122
rhand -5.0781 -5.4085
rfingers 7.12502
rthumb 20.7184 -34.3225
lclavicle 1.78906e-015 -7.95139e-016
lhumerus -1727.31 108.333 -1659.81
lradius 10.8845
lwrist -94.1726
lhand -24.5085 3.65398
lfingers 7.12502
lthumb 1.98625 33.6245
rfemur -2.48786 -8.36768 14.6137
rtibia 33.8065
rfoot -22.5975 10.4469
rtoes -18.6525
lfemur 0.0655999 11.438 -11.1519
ltibia 34.1943
lfoot -19.5557 -10.1219
ltoes -3.95404
130
root 0.465909 18.7272 2.09424 -184.175 2.49753 181.905
lowerback -18.6365 -0.970765 -0.753933
upperback 11.381 -1.15445 4.1399
thorax 24.3602 -0.81741 5.05215
lowerneck 13.2193 2.00784 -0.528158
upperneck 4.68736 3.26262 0.71634
head -0.746504 1.88585 0.161217
rclavicle -1.70955e-014 -8.74653e-015
rhumerus -1483.97 -54.6862 1413.85
rradius 13.4908
rwrist 34.4567
rhand -4.79756 -5.61126
rfingers 7.12502
rthumb 20.9879 -34.4957
lclavicle -1.70955e-014 -8.74653e-015
lhumerus -1759.22 113.24 -1690.89
lradius 10.5857
lwrist -105.377
lhand -23.8829 3.58819
lfingers 7.12502
lthumb 2.59045 33.5522
rfemur -2.86726 -8.47798 14.5247
rtibia 33.8401
rfoot -22.2806 10.5122
rtoes -18.6979
lfemur -0.187654 11.3433 -11.3842
ltibia 34.0365
lfoot -19.5674 -9.78127
ltoes -4.40582
131
root 0.452984 18.7446 2.17829 -184.068 2.57849 181.853
lowerback -17.824 -0.959448 -0.693379
upperback 11.591 -1.08115 4.11152
thorax 24.0902 -0.747286 5.01954
lowerneck 11.7338 2.28507 -0.432021
upperneck 3.78165 3.4738 0.18807
head -0.778095 1.93038 -0.0141456
rclavicle -5.96354e-015 -1.90833e-014
rhumerus -1481.83 -56.3564 1410.03
rradius 12.8594
rwrist 35.9838
rhand -5.13696 -5.79215
rfingers 7.12502
rthumb 20.6618 -34.7124
lclavicle -5.96354e-015 -1.90833e-014
lhumerus -1774.15 119.925 -1704.34
lradius 10.7019
lwrist -113.72
lhand -23.1444 3.18871
lfingers 7.12502
lthumb 3.30369 33.1429
rfemur -3.3277 -8.55044 14.4682
rtibia 33.8624
rfoot -21.9276 10.5896
rtoes -18.6467
lfemur -0.506357 11.2815 -11.6038
ltibia 33.8688
lfoot -19.4968 -9.5785
ltoes -4.37302
